<svg xmlns="http://www.w3.org/2000/svg" viewBox="0 0 16 16">
 <defs>
  <style>.icon-canvas-transparent,.icon-vs-out{fill:#252526;}.icon-canvas-transparent{opacity:0;}.icon-vs-bg{fill:#c5c5c5;}.icon-vs-action-blue{fill:#75beff;}.icon-vs-action-gray{fill:#ff0000;stroke-width:0.25;stroke:#000000}</style>
 </defs>
 <title>step-into</title>
 <g>
  <title>Layer 1</title>
  <g transform="rotate(180 8 8)" id="canvas">
   <path d="m16,0l0,16l-16,0l0,-16l16,0z" id="svg_1" class="icon-canvas-transparent"/>
  </g>
  <g display="none" id="outline">
   <path d="m11,13a3,3 0 1 1 -4.375,-2.651l-4.069,-4.069l2.474,-2.474l0.97,0.97l0,-4.776l4,0l0,4.775l0.97,-0.97l2.474,2.475l-4.069,4.069a2.991,2.991 0 0 1 1.625,2.651z" id="svg_2" class="icon-vs-out"/>
  </g>
  <g id="circle">
   <path d="m8,11a2,2 0 1 1 -2,2a2,2 0 0 1 2,-2z" stroke-width="0.1" stroke="#000000" id="svg_3" class="icon-vs-bg"/>
  </g>
  <g id="downArrow">
   <path d="m8.04318,7.10514l-2.9981,3.89751l-2.99811,-3.89751l0.78858,-1.0249l1.46558,1.9038l0,-5.98404l1.48789,0l0,5.98404l1.46558,-1.90475l0.78858,1.02587l0,-0.00001l0,-0.00001z" id="svg_8" class="icon-vs-action-blue"/>
  </g>
  <g id="xshape">
   <path d="m9.21553,3.94377l1.6163,-1.90656l1.71745,2.02525l1.71722,-2.02525l1.61629,1.90656l-1.71692,2.02519l1.71692,2.02527l-1.61629,1.90653l-1.71722,-2.02528l-1.71745,2.02528l-1.6163,-1.90653l1.71683,-2.02527l-1.71683,-2.02519z" class="icon-vs-action-gray" id="svg4"/>
  </g>
 </g>
</svg>